<svg width="142" height="48" fill="none" xmlns="http://www.w3.org/2000/svg"><g clip-path="url(#clip0_3335_36251)" fill="#fff"><path d="M12.212 20.196h3c1.774 0 2.89 1.012 2.89 2.543v.02c0 1.706-1.37 2.598-3.045 2.598h-1.511V27.8h-1.339v-7.61l.005.005zm2.89 3.956c1.011 0 1.64-.565 1.64-1.358v-.02c0-.892-.639-1.358-1.64-1.358h-1.556v2.741h1.556v-.005zm4.67-3.957h1.422l2.315 3.6 2.315-3.6h1.423v7.61h-1.338v-5.458l-2.405 3.589h-.044l-2.38-3.564v5.433h-1.318v-7.61h.01zm9.134.001h2.836c2.39 0 4.045 1.641 4.045 3.783v.02c0 2.141-1.656 3.802-4.045 3.802h-2.836v-7.61.005zm2.836 6.39c1.596 0 2.642-1.076 2.642-2.563v-.02c0-1.487-1.046-2.587-2.642-2.587H30.24v5.175h1.502v-.005zM26.913 0h-4.675l8.398 8.402h8.967v11.774l3.307-3.495V5.096H32.009L26.913 0zM0 21.09v4.675l8.402-8.402V8.4h11.774L16.68 5.094H5.096v10.9L0 21.09zm21.094 26.914h4.675L17.367 39.6H8.399V27.828l-3.301 3.495v11.585h10.9l5.096 5.096zm26.914-21.099V22.23l-8.403 8.403v8.962H27.832l3.49 3.307h11.59V32l5.096-5.096zm9.344-10.171h5.676c3.425 0 5.675 1.82 5.675 4.809v.044c0 3.272-2.731 4.962-5.958 4.962h-3.683v5.354h-1.71V16.734zm5.462 8.254c2.514 0 4.16-1.343 4.16-3.336v-.045c0-2.166-1.627-3.291-4.075-3.291h-3.837v6.672h3.752zm8.729-4.287h1.67v2.925c.823-1.864 2.45-3.207 4.571-3.118v1.8h-.129c-2.449 0-4.442 1.754-4.442 5.135v4.462h-1.67V20.7zm7.607 5.654v-.045c0-3.162 2.468-5.85 5.849-5.85 3.38 0 5.83 2.643 5.83 5.81v.045c0 3.163-2.494 5.85-5.875 5.85-3.38 0-5.81-2.642-5.81-5.81h.005zm9.968 0v-.045c0-2.404-1.8-4.377-4.159-4.377-2.36 0-4.094 1.973-4.094 4.333v.044c0 2.405 1.78 4.353 4.139 4.353 2.36 0 4.12-1.948 4.12-4.313l-.006.005zm2.776 8.968v-1.368c.263.044.585.064.823.064.759 0 1.28-.456 1.28-1.497V20.689h1.67v11.853c0 1.973-1.041 2.88-2.731 2.88-.392 0-.67-.02-1.042-.11v.01zm1.993-18.917h1.909v1.84h-1.909v-1.84zm4.961 9.925v-.044c0-3.227 2.275-5.83 5.373-5.83 3.317 0 5.225 2.642 5.225 5.914 0 .218 0 .347-.02.54h-8.883c.238 2.43 1.948 3.792 3.946 3.792 1.537 0 2.622-.63 3.529-1.58l1.041.931c-1.125 1.26-2.493 2.102-4.615 2.102-3.078 0-5.591-2.365-5.591-5.83l-.005.005zm8.908-.65c-.174-2.037-1.344-3.811-3.574-3.811-1.949 0-3.426 1.626-3.644 3.812h7.218zm3.92.674v-.045c0-3.162 2.468-5.85 5.74-5.85 2.122 0 3.445.888 4.486 1.994l-1.105 1.17c-.887-.932-1.884-1.69-3.401-1.69-2.275 0-4.01 1.927-4.01 4.332v.044c0 2.43 1.78 4.353 4.119 4.353 1.428 0 2.533-.714 3.426-1.67l1.061.996c-1.126 1.259-2.469 2.166-4.571 2.166-3.272 0-5.74-2.667-5.74-5.81l-.005.01zm13.655 2.58v-6.762h-1.561v-1.472h1.561v-3.38h1.671v3.38h3.554v1.472h-3.554v6.544c0 1.363.758 1.864 1.883 1.864.565 0 1.041-.11 1.626-.392v1.433a4.205 4.205 0 01-2.012.476c-1.8 0-3.163-.888-3.163-3.163h-.005zm7.243 1.535l.843-1.195c1.214.912 2.558 1.433 3.876 1.433 1.319 0 2.32-.694 2.32-1.78v-.044c0-1.126-1.323-1.562-2.795-1.973-1.755-.501-3.708-1.106-3.708-3.163v-.045c0-1.928 1.606-3.207 3.812-3.207 1.368 0 2.885.476 4.03 1.234l-.759 1.26c-1.041-.67-2.23-1.086-3.316-1.086-1.324 0-2.166.694-2.166 1.626v.044c0 1.061 1.388 1.473 2.885 1.929 1.735.52 3.599 1.19 3.599 3.207v.045c0 2.121-1.755 3.36-3.986 3.36-1.606 0-3.381-.629-4.635-1.645z"/></g><defs><clipPath id="clip0_3335_36251"><path fill="#fff" d="M0 0h141.194v48H0z"/></clipPath></defs></svg>